<svg width="21" height="21" viewBox="0 0 21 21" fill="none" xmlns="http://www.w3.org/2000/svg">
<g clip-path="url(#clip0_351_18)">
<mask id="mask0_351_18" style="mask-type:luminance" maskUnits="userSpaceOnUse" x="0" y="0" width="21" height="21">
<path d="M21 0H0V21H21V0Z" fill="white"/>
</mask>
<g mask="url(#mask0_351_18)">
<path fill-rule="evenodd" clip-rule="evenodd" d="M10.5087 0C4.69766 0 0 4.73231 0 10.5868C0 15.2666 3.00995 19.2279 7.18554 20.63C7.70761 20.7354 7.89884 20.4022 7.89884 20.1219C7.89884 19.8765 7.88161 19.0352 7.88161 18.1587C4.95836 18.7898 4.34962 16.8966 4.34962 16.8966C3.87983 15.6697 3.18375 15.3543 3.18375 15.3543C2.22697 14.7058 3.25345 14.7058 3.25345 14.7058C4.31477 14.7759 4.87169 15.7925 4.87169 15.7925C5.81105 17.4049 7.32471 16.9493 7.93367 16.6688C8.0206 15.9852 8.29916 15.512 8.59491 15.2492C6.26338 15.0037 3.81035 14.0923 3.81035 10.0258C3.81035 8.86896 4.22765 7.92251 4.88889 7.18642C4.78454 6.92357 4.4191 5.83664 4.99341 4.38187C4.99341 4.38187 5.88074 4.10139 7.88139 5.46858C8.73797 5.23683 9.62132 5.11897 10.5087 5.11796C11.396 5.11796 12.3005 5.24081 13.1358 5.46858C15.1367 4.10139 16.024 4.38187 16.024 4.38187C16.5983 5.83664 16.2326 6.92357 16.1283 7.18642C16.8069 7.92251 17.207 8.86896 17.207 10.0258C17.207 14.0923 14.754 14.9861 12.4051 15.2492C12.788 15.5821 13.1184 16.2131 13.1184 17.2122C13.1184 18.6319 13.1011 19.7713 13.1011 20.1217C13.1011 20.4022 13.2926 20.7354 13.8144 20.6302C17.99 19.2277 21 15.2666 21 10.5868C21.0172 4.73231 16.3023 0 10.5087 0Z" fill="white"/>
</g>
</g>
<defs>
<clipPath id="clip0_351_18">
<rect width="21" height="21" fill="white"/>
</clipPath>
</defs>
</svg>
