<svg width="20" height="20" viewBox="0 0 20 20" fill="none" xmlns="http://www.w3.org/2000/svg">
<path fill-rule="evenodd" clip-rule="evenodd" d="M18.3217 18.3215C18.8232 17.8185 19.217 17.2138 19.4739 16.5508C19.72 15.9138 19.8892 15.1877 19.9385 14.1231C19.9877 13.0569 20 12.7154 20 10C20 7.28462 19.9877 6.94308 19.9385 5.87692C19.8892 4.81231 19.72 4.08615 19.4739 3.44923C19.2227 2.78207 18.8289 2.17775 18.3201 1.67846C17.8208 1.16969 17.2166 0.775926 16.5495 0.524615C15.9126 0.278461 15.1865 0.109231 14.122 0.0600001C13.0559 0.0107693 12.7144 0 9.99923 0C7.28406 0 6.94254 0.0107692 5.87647 0.0615384C4.81194 0.107692 4.08584 0.276923 3.44897 0.524615C2.78219 0.7765 2.17806 1.17019 1.67833 1.67846C1.1701 2.17822 0.77644 2.7824 0.524575 3.44923C0.27844 4.08615 0.109222 4.81231 0.0599954 5.87692C0.0107685 6.94308 0 7.28462 0 10C0 12.7154 0.0107683 13.0569 0.0615337 14.1231C0.107684 15.1877 0.276902 15.9138 0.524575 16.5508C0.776863 17.2185 1.17068 17.8215 1.67833 18.3215C2.17829 18.8292 2.78286 19.2231 3.44897 19.4754C4.08584 19.7215 4.81194 19.8908 5.87647 19.94C6.94254 19.9877 7.28406 20 9.99923 20C12.7144 20 13.0559 19.9877 14.122 19.9385C15.1865 19.8923 15.9126 19.7231 16.5495 19.4754C17.2136 19.2183 17.8183 18.8253 18.3217 18.3215ZM1.53834 8.82308V11.1769C1.53527 12.44 1.53527 12.7677 1.56911 13.4846C1.60911 14.3862 1.65833 15.0477 1.80909 15.5462C1.9537 16.0262 2.11522 16.5154 2.64441 17.1031C3.1736 17.6923 3.68279 17.9585 4.33197 18.1554C4.98269 18.3508 5.79955 18.3923 6.50873 18.4246C7.31175 18.4615 7.63172 18.4615 9.31775 18.4615H11.1376C12.4329 18.4631 12.759 18.4646 13.4851 18.4308C14.385 18.3892 15.0465 18.34 15.5465 18.1908C16.0249 18.0462 16.5141 17.8831 17.1018 17.3554C17.6909 16.8262 17.9571 16.3154 18.154 15.6662C18.3494 15.0169 18.3924 14.2 18.4247 13.4908C18.4601 12.6877 18.4601 12.3692 18.4601 10.6877V9.31846C18.4601 7.63231 18.4601 7.31385 18.4247 6.50923C18.3924 5.8 18.3494 4.98308 18.154 4.33385C17.9586 3.68308 17.6925 3.17385 17.1018 2.64462C16.5126 2.11538 16.0249 1.95385 15.5465 1.80923C15.0465 1.66 14.385 1.60923 13.4851 1.56923C12.7031 1.53709 11.9202 1.52683 11.1376 1.53846H9.31775C7.63172 1.53846 7.31175 1.53846 6.50873 1.57385C5.79955 1.60615 4.98269 1.64923 4.33197 1.84462C3.68279 2.04154 3.1736 2.30769 2.64441 2.89692C2.11522 3.48615 1.95216 3.97385 1.80909 4.45385C1.65833 4.95231 1.60911 5.61385 1.56911 6.51539C1.53527 7.23231 1.53527 7.56 1.53834 8.82308ZM9.99923 6.53846C9.08124 6.53846 8.20086 6.90316 7.55174 7.55232C6.90263 8.20149 6.53796 9.08194 6.53796 10C6.53796 10.9181 6.90263 11.7985 7.55174 12.4477C8.20086 13.0968 9.08124 13.4615 9.99923 13.4615C10.9172 13.4615 11.7976 13.0968 12.4467 12.4477C13.0958 11.7985 13.4605 10.9181 13.4605 10C13.4605 9.08194 13.0958 8.20149 12.4467 7.55232C11.7976 6.90316 10.9172 6.53846 9.99923 6.53846ZM4.99962 10C4.99962 8.67392 5.52636 7.40215 6.46397 6.46447C7.40158 5.52678 8.67325 5 9.99923 5C11.3252 5 12.5969 5.52678 13.5345 6.46447C14.4721 7.40215 14.9988 8.67392 14.9988 10C14.9988 11.3261 14.4721 12.5979 13.5345 13.5355C12.5969 14.4732 11.3252 15 9.99923 15C8.67325 15 7.40158 14.4732 6.46397 13.5355C5.52636 12.5979 4.99962 11.3261 4.99962 10ZM15.3373 5.81538C15.6433 5.81538 15.9367 5.69382 16.1531 5.47743C16.3695 5.26104 16.491 4.96756 16.491 4.66154C16.491 4.35552 16.3695 4.06203 16.1531 3.84565C15.9367 3.62926 15.6433 3.50769 15.3373 3.50769C15.0313 3.50769 14.7378 3.62926 14.5215 3.84565C14.3051 4.06203 14.1835 4.35552 14.1835 4.66154C14.1835 4.96756 14.3051 5.26104 14.5215 5.47743C14.7378 5.69382 15.0313 5.81538 15.3373 5.81538Z" fill="white"/>
</svg>
